<svg xmlns="http://www.w3.org/2000/svg" width="256" height="256" viewBox="0 0 256 256"><path d="m193.656 145.867 2.848-.004 2.996.012 2.996-.012 2.848.004 2.63.004C210 146 210 146 211 147c.094 1.902.117 3.808.114 5.713v3.7l-.016 4.028-.005 4.099q-.006 5.403-.024 10.806-.014 5.51-.02 11.02-.016 10.816-.049 21.634h-4v-4l-13-2v2h-2v4h-4v-17h-8a95 95 0 0 1-5-3c-2.792-.435-2.792-.435-5.796-.354l-3.51-.008-3.822.037q-2.024.004-4.046.004c-3.655.003-7.31.025-10.964.05-3.824.022-7.647.027-11.47.033-7.238.015-14.475.044-21.713.078-12.977.062-25.954.1-38.93.132q-6.836.018-13.67.054-4.24.019-8.48.032-2.918.013-5.836.033l-3.475.01-3.04.014C38 188 38 188 37 187c-.099-1.998-.13-4-.125-6l-.008-3.312C37 175 37 175 38 174a92 92 0 0 1 5.205-.093l3.42.013 3.786.03 6.02.029q3.247.016 6.493.038 6.763.039 13.527.059l4.628.015 2.342.008c10.5.036 21.002.082 31.503.148q10.616.067 21.233.089c3.746.008 7.492.023 11.238.056 4.182.037 8.364.043 12.547.046l3.755.049c6.487-.023 10.316-.237 15.303-4.487 2.555-.39 2.555-.39 4.875-.25l2.367.11L188 170l-.016-2.095q-.029-4.67-.047-9.343l-.025-3.298-.01-3.135-.016-2.904c.208-4.063 2.2-3.353 5.77-3.358" fill="#2893b0"/><path d="M71 66c2.29 3.435 3.109 6.738 4.063 10.688l.525 2.068C77.154 85.11 78.165 91.43 78.063 98l-.028 2.313L78 102c5.335-4.52 10.337-9.266 15.215-14.277C95 86 95 86 96 86v24c5.154-4.51 8.82-7.96 13-13h2v14h13c-2.984 5.968-6.402 10.279-12 14-5.854 1.84-12.17 1.483-18.238 1.434q-2.656.02-5.312.05c-3.7.028-7.397.02-11.097-.015-4.71-.04-9.411.023-14.12.117a514 514 0 0 1-10.962.037 220 220 0 0 0-5.201.057c-8.847.174-15.294-.131-21.982-6.395C18 112.912 18 112.912 18 111h14V97h2c1.516 1.574 1.516 1.574 3.25 3.688 3.058 3.724 5.877 6.085 9.75 9.312V86c4.2 3.6 8.063 6.957 11.875 10.875A189 189 0 0 0 63 101h1c.105-.634.21-1.268.32-1.92C68.212 75.82 68.212 75.82 71 66" fill="#f4f3db"/><path d="M218 39c1.39 4.962-.135 7.943-2 12.625l-.848 2.293c-4.682 11.98-13.16 20.475-22.214 29.27q-3.18 3.109-6.348 6.23l-1.51 1.483A140 140 0 0 0 175 102c-6.96-5.672-6.96-5.672-9-10l1.358-1.342a4331 4331 0 0 0 6.204-6.158c.705-.696 1.41-1.392 2.135-2.11 3.253-3.237 6.429-6.482 9.397-9.984 5.884-6.832 12.452-13.055 18.844-19.406l4.095-4.082Q213.013 43.955 218 39" fill="#f6f5dd"/><path d="M221 91q1.696 1.364 3.375 2.75l1.898 1.547c1.81 1.785 2.728 3.382 3.727 5.703l-2.562 2.25c-2.638 2.364-2.638 2.364-2.438 4.563 1.497 3.275 3.992 5.492 6.563 7.937l1.576 1.535c1.28 1.245 2.57 2.481 3.861 3.715-1.762 3.775-3.769 6.307-7 9-3.24-.028-4.36-1.322-6.797-3.504a283 283 0 0 1-2.953-3.058l-1.535-1.577A610 610 0 0 1 215 118c-2.86 1.36-4.86 2.645-7 5-3.828-1.56-6.364-3.836-9-7 .156-4.119 2.885-6.229 5.691-8.984l1.409-1.396a857 857 0 0 1 4.463-4.37l3.021-2.98A1771 1771 0 0 1 221 91" fill="#f2f1d9"/><path d="M152 91c5.373 4.51 10.49 9.215 15.5 14.125l2.242 2.129 2.102 2.066 1.912 1.852C175 113 175 113 174.786 115.124c-.939 2.242-2.08 3.47-3.849 5.126l-1.66 1.578L168 123c-2.884-1.293-4.872-2.66-7-5-4.074 1.61-6.765 4.538-9.75 7.625l-1.535 1.563A897 897 0 0 0 146 131a324 324 0 0 1-3.375-2.75l-1.898-1.547C139 125 139 125 137 121l13-13-6-7c2.225-4.45 4.446-6.6 8-10" fill="#f3f2db"/><path d="M155 39c5.931 4.948 11.493 10.21 17 15.625l2.676 2.563 2.512 2.476 2.292 2.233C181 64 181 64 180.826 66.165c-.983 2.183-2.144 3.452-3.888 5.085l-1.66 1.578L174 74c-6.676-2.834-11.12-10.562-14-17-5-13.53-5-13.53-5-18" fill="#eae9d2"/><path d="M218 39c1.224 3.938.483 6.161-1 10l-2-3-48 48c0-3 0-3 1.266-4.59l1.77-1.703 1.954-1.912 2.072-1.983c5.692-5.5 5.692-5.5 11-11.363 5.891-6.85 12.47-13.085 18.875-19.449l4.096-4.082Q213.013 43.955 218 39" fill="#dddcc6"/><path d="M200 86c3.366 1.443 5.51 3.333 8 6-2.001 4.649-5.125 6.842-9 10l-6-7c1.952-3.904 3.874-6.038 7-9" fill="#f2f1da"/><path d="M194 202a351 351 0 0 1 4.813-.125l2.707-.07C204 202 204 202 207 204l-1 4h-14v-4h2z" fill="#01090c"/><path d="M188 212h23l-1 3h-21z" fill="#268da8"/><path d="M152 91q1.693 1.4 3.375 2.813l1.898 1.582C159 97 159 97 161 100h-5v-4h-8z" fill="#e6e5ce"/><path d="M202 86c-1.082 2.525-2.069 4.066-4.062 6-2.014 2.079-2.536 3.188-2.938 6l-2-5a517 517 0 0 1 3.375-3.5l1.898-1.969C200 86 200 86 202 86" fill="#d6d5c0"/><path d="M71 66c2.189 3.283 2.453 4.196 2 8-1.375 2.625-1.375 2.625-3 5l-2 3c.692-5.418 1.758-10.682 3-16" fill="#d2d1bc"/><path d="M196 205h7l1 3h-9z" fill="#268ca7"/><path d="M194 202h10v1h-8l-1 5h-3v-4h2z" fill="#031419"/><path d="M111 111h13c-2 4-2 4-4 5v-4h-9z" fill="#d8d7c2"/><path d="M236 123c0 4.337-2.08 5.944-5 9h-3v-2c1.75-1.727 1.75-1.727 4-3.625l2.25-1.914z" fill="#32322c"/><path d="M147 96h1v8l-4-3c1.875-3.875 1.875-3.875 3-5" fill="#e5e4cd"/><path d="m218 39 1 4-2 3-1-2-4 2z" fill="#b1b09e"/></svg>