<svg xmlns="http://www.w3.org/2000/svg" width="256" height="256" viewBox="0 0 256 256"><path d="M193 163c3.112.455 5.94.978 8.906 2.047 6.555 1.91 13.75.95 20.49.7 10.029-.198 15.65 2.07 23.167 8.69l2.628 2.247C250 179 250 179 250.027 181.53c-1.235 2.968-2.609 4.42-5.027 6.531l-2.187 1.973c-8.58 5.994-15.65 6.422-26 6.028a637 637 0 0 0-7.418-.215l-3.286-.125c-3.622.323-5.912 1.605-9.109 3.277h-4l-1-6-1.75-.375c-2.273-.631-4.175-1.514-6.25-2.625v2h-9v-2h-5v16c-5 1-5 1-8 0v-16l-4.75.375c-.882.07-1.763.14-2.672.21-2.569.414-4.336 1.127-6.578 2.415v5l-3.625.75c-4.517 1.615-5.802 4.226-7.875 8.438-.86 1.926-1.701 3.86-2.5 5.812h-2l-.375 1.625c-.747 2.839-1.678 5.597-2.625 8.375-3.669-.706-6.705-2.277-10-4l4.462-8.925 1.853-3.707c1.327-2.656 2.656-5.31 3.998-7.958 1.408-2.781 2.7-5.447 3.687-8.41l-2.23.038c-62.613 1.06-62.613 1.06-88.083 1.087l-2.552.008q-3.499.007-6.998 0l-3.853-.004c-2.892-.114-5.476-.457-8.284-1.129v2h-9v-22h172v2l2.313-1.437C189 169 189 169 192 168z" fill="#2790ad"/><path d="M110 69h8a805 805 0 0 1 2.5 4.375l1.406 2.46C123 78 123 78 123 80h4l-.656-1.645-.844-2.168-.844-2.144C124 72 124 72 124 69c14.724-1.09 14.724-1.09 17.824 1.559q1.04 1.92 2.024 3.867c1.041 1.75 1.041 1.75 3.086 2.18 6.896.237 13.534-1.812 20.136-3.586 4.225-1.127 8.48-1.919 12.793-2.625 2.312-.376 2.312-.376 5.137-1.395 6.725-.558 12.828 1.224 19.313 2.875C211.85 73.761 219.367 75.54 227 77v14a2320 2320 0 0 1-12.062 2.84c-3.238.753-6.465 1.54-9.688 2.351l-4.625 1.121-2.119.556c-9.802 2.32-19.4-.072-29.006-2.368l-2.953-.684c-3.57-.833-7.068-1.656-10.547-2.816-3.751-.511-7.269-.714-11 0-1.351 1.537-1.351 1.537-2.187 3.5-1.024 1.941-1.024 1.941-2.813 3.5-5.39.65-10.597.4-16 0 .606-3.945 1.385-7.34 3-11l-4 1-1 4h-2l-.437 2.438C119 98 119 98 118 99c-2.67.141-5.324.042-8 0l.621-1.687c3.155-8.936 4.38-14.279.29-23.114C110 72 110 72 110 69" fill="#f4f3dc"/><path d="M60 61h1l4 19 4-1 2-4 7-6v20h2l.777-1.766c1.33-2.431 2.807-4.051 4.785-5.984l1.88-1.86C89 78 89 78 90 78v11h10c-2.515 5.03-5.117 8.15-10 11-4.522 1.034-8.929 1.053-13.555 1.035l-3.93.042c-2.735.024-5.468.021-8.204 0-3.48-.023-6.955.031-10.435.107-3.352.06-6.703.045-10.056.039l-3.744.09c-7.152-.133-10.766-1.232-15.94-6.327C20 90.324 20 90.324 20 89h11V78c8.14 6.912 8.14 6.912 10 9v2h2V69c4.753 4.074 8.192 7.296 12 12h1z" fill="#f0efd8"/><path d="M110 69h8l1 3h-3v-2h-4v5c-2-3-2-3-2-6m-50-8h1l1 9-3 1z" fill="#dddcc6"/></svg>