<?xml version="1.0" encoding="UTF-8"?>
<svg version="1.1" xmlns="http://www.w3.org/2000/svg" width="256" height="256" viewBox="0 0 256 256">
  <path d="M0 0 C1.32 0 2.64 0 4 0 C4 0.66 4 1.32 4 2 C4.99 2.33 5.98 2.66 7 3 C7.1875 6.375 7.1875 6.375 7 10 C3.98810728 12.00792848 1.41778932 12.88398716 -2 14 C-3.34721283 14.63815344 -4.68747118 15.29325371 -6 16 C-6 16.66 -6 17.32 -6 18 C-5.05125 17.95875 -4.1025 17.9175 -3.125 17.875 C0 18 0 18 2 20 C3.98821313 20.39764263 5.98944339 20.73775349 8 21 C8 22.98 8 24.96 8 27 C7.34 27 6.68 27 6 27 C6 29.31 6 31.62 6 34 C3.36 34 0.72 34 -2 34 C-2 35.32 -2 36.64 -2 38 C-0.68733154 37.96970703 0.62533691 37.93941406 1.9777832 37.90820312 C50.03116045 36.808593 50.03116045 36.808593 73 37 C73 41.62 73 46.24 73 51 C69.45812692 51.0541203 65.9170872 51.09373315 62.375 51.125 C61.37597656 51.14175781 60.37695312 51.15851563 59.34765625 51.17578125 C58.37441406 51.18222656 57.40117187 51.18867188 56.3984375 51.1953125 C55.06304932 51.21102295 55.06304932 51.21102295 53.70068359 51.22705078 C51 51 51 51 48.24438477 50.00219727 C43.98876733 48.68762811 40.11762584 48.73184343 35.69140625 48.76953125 C34.80645981 48.76998947 33.92151337 48.77044769 33.00975037 48.7709198 C31.14475152 48.77393046 29.27975492 48.7817811 27.41479492 48.79418945 C24.57526638 48.81241805 21.7360653 48.81469904 18.89648438 48.81445312 C17.07812221 48.81937035 15.25976223 48.82519956 13.44140625 48.83203125 C12.17859581 48.83370049 12.17859581 48.83370049 10.89027405 48.83540344 C6.16033436 48.87307882 1.6659177 49.21510488 -3 50 C-3 50.66 -3 51.32 -3 52 C-9.80337844 53.57142384 -16.80044864 53.39265371 -23.75 53.5625 C-24.96073181 53.59327133 -24.96073181 53.59327133 -26.19592285 53.62466431 C-43.96844649 54.05997177 -61.74509664 54.14143554 -79.52210999 54.18122482 C-81.75283781 54.18750799 -83.98352352 54.19742192 -86.2142334 54.20828247 C-89.76218666 54.22491076 -93.31001135 54.23109473 -96.85800171 54.22925949 C-98.82079485 54.23044544 -100.7835748 54.2411799 -102.74633789 54.25210571 C-103.92284912 54.2490744 -105.09936035 54.24604309 -106.31152344 54.24291992 C-107.34194763 54.24434494 -108.37237183 54.24576996 -109.434021 54.24723816 C-112 54 -112 54 -115 52 C-117.19261937 51.68019317 -117.19261937 51.68019317 -119.63916016 51.69702148 C-120.57668121 51.68037949 -121.51420227 51.66373749 -122.48013306 51.64659119 C-123.48957977 51.63817703 -124.49902649 51.62976288 -125.5390625 51.62109375 C-127.09395889 51.59560204 -127.09395889 51.59560204 -128.68026733 51.56959534 C-131.99511618 51.51640284 -135.30995191 51.47613077 -138.625 51.4375 C-141.94712579 51.39363643 -145.26915219 51.34700074 -148.59115601 51.29469299 C-150.65994835 51.26262642 -152.72882889 51.23577101 -154.79776001 51.21446228 C-155.72897675 51.20097244 -156.66019348 51.1874826 -157.61962891 51.17358398 C-158.44330963 51.16407211 -159.26699036 51.15456024 -160.1156311 51.14476013 C-162 51 -162 51 -163 50 C-163.08631874 48.65732587 -163.10706473 47.31025678 -163.09765625 45.96484375 C-163.09443359 45.15595703 -163.09121094 44.34707031 -163.08789062 43.51367188 C-163.07951172 42.66353516 -163.07113281 41.81339844 -163.0625 40.9375 C-163.05798828 40.08349609 -163.05347656 39.22949219 -163.04882812 38.34960938 C-163.03700373 36.23304337 -163.01906769 34.11651315 -163 32 C-162.34 32 -161.68 32 -161 32 C-161 31.34 -161 30.68 -161 30 C-159.88882813 29.68546875 -158.77765625 29.3709375 -157.6328125 29.046875 C-148.52752426 26.43980091 -139.73964088 23.63650171 -131.1171875 19.67578125 C-124.99281899 16.94252727 -119.80580488 15.40996071 -113.08203125 15.140625 C-111.01076232 15.23004512 -111.01076232 15.23004512 -110 14 C-108.48143658 13.89641806 -106.95811218 13.86148886 -105.43603516 13.85473633 C-104.46477692 13.84835648 -103.49351868 13.84197662 -102.49282837 13.83540344 C-100.90696426 13.83373421 -100.90696426 13.83373421 -99.2890625 13.83203125 C-98.20998627 13.82870285 -97.13091003 13.82537445 -96.01913452 13.82194519 C-93.73085966 13.81687079 -91.44257736 13.81453702 -89.15429688 13.81469727 C-85.64701152 13.8125137 -82.140042 13.79437127 -78.6328125 13.77539062 C-76.41406358 13.77245628 -74.19531316 13.77047176 -71.9765625 13.76953125 C-70.92336823 13.76234573 -69.87017395 13.75516022 -68.7850647 13.74775696 C-67.80750214 13.75083359 -66.82993958 13.75391022 -65.82275391 13.75708008 C-64.53155136 13.75494255 -64.53155136 13.75494255 -63.21426392 13.75276184 C-61 14 -61 14 -58 16 C-58 16.66 -58 17.32 -58 18 C-51.91584906 18.05512255 -45.83472354 18.05728965 -39.75048828 18.01220703 C-37.68473957 18.00413896 -35.61888355 18.01007556 -33.55322266 18.03076172 C-18.28603939 18.53999126 -18.28603939 18.53999126 -5.53857422 11.09326172 C-3.31164789 8.06348287 -2.59210033 5.70062703 -2 2 C-1.34 1.34 -0.68 0.68 0 0 Z" fill="#2791AD" transform="translate(175,145)"/>
  <path d="M0 0 C5.58758173 -0.09201873 11.17251711 -0.17159791 16.76025391 -0.21972656 C18.65943325 -0.23979629 20.55855115 -0.26705851 22.45751953 -0.30175781 C25.19318839 -0.35048109 27.92803771 -0.37301507 30.6640625 -0.390625 C31.50804596 -0.41127014 32.35202942 -0.43191528 33.22158813 -0.45318604 C39.91426781 -0.45571237 43.31920322 1.67193964 48.375 6.0625 C50.8874366 10.60421231 50.75240685 14.92848846 50 20 C48.92422344 22.69407837 47.69659853 24.61415831 46 27 C45.34 27 44.68 27 44 27 C44 27.66 44 28.32 44 29 C38.88223869 31.06857765 34.5203057 31.26521109 29.1015625 31.1953125 C27.84912247 31.19106766 27.84912247 31.19106766 26.57138062 31.18673706 C23.92243709 31.17560301 21.27384016 31.15051127 18.625 31.125 C16.82161949 31.11496143 15.01823364 31.10583712 13.21484375 31.09765625 C8.80965707 31.0773932 4.40521341 31.03823232 0 31 C0 20.77 0 10.54 0 0 Z" fill="#F5F4DC" transform="translate(128,94)"/>
  <path d="M0 0 C5.7126897 -0.13814834 11.41953573 -0.25744952 17.13256836 -0.32958984 C19.07352382 -0.35967215 21.01434436 -0.40054963 22.95483398 -0.45263672 C25.75278065 -0.52583255 28.54892336 -0.55954101 31.34765625 -0.5859375 C32.2083522 -0.61690521 33.06904816 -0.64787292 33.95582581 -0.67977905 C39.60831361 -0.68290176 42.51953915 0.49342603 46.61277771 4.41513062 C50.36984414 8.70749212 50.43525226 11.71605768 50.3046875 17.20703125 C49.82582841 21.59657293 48.81948296 23.54613337 46 27 C40.50164414 30.81020789 35.45622346 31.56181483 28.90625 31.390625 C27.65805481 31.38213531 27.65805481 31.38213531 26.38464355 31.37347412 C23.7558159 31.35128184 21.12840783 31.30112133 18.5 31.25 C16.70574901 31.22991268 14.91147641 31.21166584 13.1171875 31.1953125 C8.74381965 31.1548932 4.37347753 31.0765784 0 31 C0 20.77 0 10.54 0 0 Z" fill="#F5F4DD" transform="translate(128,47)"/>
  <path d="M0 0 C3.96 0 7.92 0 12 0 C12 1.32 12 2.64 12 4 C22.56 4 33.12 4 44 4 C44 14.23 44 24.46 44 35 C33.77 35 23.54 35 13 35 C13 35.99 13 36.98 13 38 C8.71 38 4.42 38 0 38 C0 25.46 0 12.92 0 0 Z" fill="#F6F5DD" transform="translate(78,90)"/>
  <path d="M0 0 C3.96 0 7.92 0 12 0 C12 1.32 12 2.64 12 4 C22.56 4 33.12 4 44 4 C44 14.23 44 24.46 44 35 C33.77 35 23.54 35 13 35 C13 35.99 13 36.98 13 38 C8.71 38 4.42 38 0 38 C0 25.46 0 12.92 0 0 Z" fill="#F8F7DF" transform="translate(78,43)"/>
  <path d="M0 0 C1.9453125 -0.29296875 1.9453125 -0.29296875 4.125 -0.1875 C5.40375 -0.125625 6.6825 -0.06375 8 0 C8 3.96 8 7.92 8 12 C-3.22 12 -14.44 12 -26 12 C-26 10.68 -26 9.36 -26 8 C-25.01 8 -24.02 8 -23 8 C-23 7.34 -23 6.68 -23 6 C-20.77332235 5.32506659 -18.54354023 4.66036956 -16.3125 4 C-14.45044922 3.443125 -14.45044922 3.443125 -12.55078125 2.875 C-8.68966375 1.9235255 -5.6315092 1.1842454 -2 3 C-1.34 2.01 -0.68 1.02 0 0 Z" fill="#01080A" transform="translate(46,178)"/>
  <path d="M0 0 C1.32 0 2.64 0 4 0 C4 0.66 4 1.32 4 2 C-0.38461538 5 -0.38461538 5 -3 5 C-1.125 1.125 -1.125 1.125 0 0 Z" fill="#1B6C81" transform="translate(175,145)"/>
</svg>
